<svg width="41" height="33" viewBox="0 0 41 33" fill="none" xmlns="http://www.w3.org/2000/svg">
<rect width="41" height="33" rx="10" fill="#413EE0" fill-opacity="0.13"/>
<rect x="0.5" y="0.5" width="40" height="32" rx="9.5" stroke="#22287A" stroke-opacity="0.7"/>
<path d="M20.1594 8.99375L15.6219 12.6687C14.8672 13.2781 14.7219 14.375 15.2938 15.1578C15.8984 15.9922 17.075 16.1562 17.8859 15.5234L22.5406 11.9047C22.8688 11.6516 23.3375 11.7078 23.5953 12.0359C23.8531 12.3641 23.7922 12.8328 23.4641 13.0906L22.4844 13.85L29 19.85V11H28.9672L28.7844 10.8828L25.3812 8.70312C24.6641 8.24375 23.825 8 22.9719 8C21.95 8 20.9562 8.35156 20.1594 8.99375ZM21.2281 14.825L18.8047 16.7094C17.3281 17.8625 15.1859 17.5625 14.0797 16.0437C13.0391 14.6141 13.3016 12.6172 14.675 11.5062L18.575 8.35156C18.0312 8.12187 17.4453 8.00469 16.85 8.00469C15.9688 8 15.1109 8.2625 14.375 8.75L11 11V21.5H12.3219L16.6063 25.4094C17.525 26.2484 18.9453 26.1828 19.7844 25.2641C20.0422 24.9781 20.2156 24.6453 20.3047 24.2984L21.1016 25.0297C22.0156 25.8687 23.4406 25.8078 24.2797 24.8937C24.4906 24.6641 24.6453 24.3969 24.7438 24.1203C25.6531 24.7297 26.8906 24.6031 27.6547 23.7687C28.4937 22.8547 28.4328 21.4297 27.5187 20.5906L21.2281 14.825ZM5.75 11C5.3375 11 5 11.3375 5 11.75V21.5C5 22.3297 5.67031 23 6.5 23H8C8.82969 23 9.5 22.3297 9.5 21.5V11H5.75ZM7.25 20C7.44891 20 7.63968 20.079 7.78033 20.2197C7.92098 20.3603 8 20.5511 8 20.75C8 20.9489 7.92098 21.1397 7.78033 21.2803C7.63968 21.421 7.44891 21.5 7.25 21.5C7.05109 21.5 6.86032 21.421 6.71967 21.2803C6.57902 21.1397 6.5 20.9489 6.5 20.75C6.5 20.5511 6.57902 20.3603 6.71967 20.2197C6.86032 20.079 7.05109 20 7.25 20ZM30.5 11V21.5C30.5 22.3297 31.1703 23 32 23H33.5C34.3297 23 35 22.3297 35 21.5V11.75C35 11.3375 34.6625 11 34.25 11H30.5ZM32 20.75C32 20.5511 32.079 20.3603 32.2197 20.2197C32.3603 20.079 32.5511 20 32.75 20C32.9489 20 33.1397 20.079 33.2803 20.2197C33.421 20.3603 33.5 20.5511 33.5 20.75C33.5 20.9489 33.421 21.1397 33.2803 21.2803C33.1397 21.421 32.9489 21.5 32.75 21.5C32.5511 21.5 32.3603 21.421 32.2197 21.2803C32.079 21.1397 32 20.9489 32 20.75Z" fill="#22287A" fill-opacity="0.7"/>
</svg>
