<svg width="41" height="33" viewBox="0 0 41 33" fill="none" xmlns="http://www.w3.org/2000/svg">
<rect width="41" height="33" rx="10" fill="#C03EE0" fill-opacity="0.13"/>
<rect x="0.5" y="0.5" width="40" height="32" rx="9.5" stroke="#7A2273" stroke-opacity="0.7"/>
<path d="M20.6356 10.6308C22.8621 10.6308 23.6877 11.694 23.7627 13.2575H26.5271C26.4396 11.1061 25.1262 9.12974 22.5119 8.49181V5.75244H18.7593V8.45428C18.2715 8.55435 17.8212 8.71696 17.3834 8.90459L19.2722 10.7934C19.6725 10.6933 20.1353 10.6308 20.6356 10.6308ZM11.8421 6.90322L10.0784 8.66692L14.3814 12.9699C14.3814 15.5716 16.3327 16.9976 19.2722 17.8607L23.6627 22.2512C23.2374 22.8641 22.3493 23.3894 20.6356 23.3894C18.0589 23.3894 17.0457 22.2387 16.9081 20.7627H14.1562C14.3063 23.502 16.3577 25.0406 18.7593 25.5534V28.2678H22.5119V25.5784C23.7127 25.3533 24.8009 24.8905 25.589 24.1775L28.3659 26.9544L30.1296 25.1907L11.8421 6.90322Z" fill="#C03EE0" fill-opacity="0.7"/>
</svg>
