<svg width="41" height="33" viewBox="0 0 41 33" fill="none" xmlns="http://www.w3.org/2000/svg">
<rect width="41" height="33" rx="10" fill="#3ED5E0" fill-opacity="0.13"/>
<rect x="0.5" y="0.5" width="40" height="32" rx="9.5" stroke="#227A76" stroke-opacity="0.7"/>
<path d="M20 23.25C20.3542 23.25 20.6513 23.13 20.8913 22.89C21.1313 22.65 21.2508 22.3533 21.25 22V17C21.25 16.6458 21.13 16.3492 20.89 16.11C20.65 15.8708 20.3533 15.7508 20 15.75C19.6467 15.7492 19.35 15.8692 19.11 16.11C18.87 16.3508 18.75 16.6475 18.75 17V22C18.75 22.3542 18.87 22.6512 19.11 22.8912C19.35 23.1312 19.6467 23.2508 20 23.25ZM20 13.25C20.3542 13.25 20.6513 13.13 20.8913 12.89C21.1313 12.65 21.2508 12.3533 21.25 12C21.2492 11.6467 21.1292 11.35 20.89 11.11C20.6508 10.87 20.3542 10.75 20 10.75C19.6458 10.75 19.3492 10.87 19.11 11.11C18.8708 11.35 18.7508 11.6467 18.75 12C18.7492 12.3533 18.8692 12.6504 19.11 12.8913C19.3508 13.1321 19.6475 13.2517 20 13.25ZM20 29.5C18.2708 29.5 16.6458 29.1717 15.125 28.515C13.6042 27.8583 12.2813 26.9679 11.1563 25.8438C10.0313 24.7196 9.14084 23.3967 8.485 21.875C7.82917 20.3533 7.50083 18.7283 7.5 17C7.49917 15.2717 7.8275 13.6467 8.485 12.125C9.1425 10.6033 10.0329 9.28042 11.1563 8.15625C12.2796 7.03208 13.6025 6.14167 15.125 5.485C16.6475 4.82833 18.2725 4.5 20 4.5C21.7275 4.5 23.3525 4.82833 24.875 5.485C26.3975 6.14167 27.7204 7.03208 28.8438 8.15625C29.9671 9.28042 30.8579 10.6033 31.5163 12.125C32.1746 13.6467 32.5025 15.2717 32.5 17C32.4975 18.7283 32.1692 20.3533 31.515 21.875C30.8608 23.3967 29.9704 24.7196 28.8438 25.8438C27.7171 26.9679 26.3942 27.8587 24.875 28.5162C23.3558 29.1737 21.7308 29.5017 20 29.5Z" fill="#3ED5E0" fill-opacity="0.8"/>
</svg>
