<svg width="41" height="34" viewBox="0 0 41 34" fill="none" xmlns="http://www.w3.org/2000/svg">
<rect y="0.5" width="41" height="33" rx="10" fill="#3E81E0" fill-opacity="0.13"/>
<rect x="0.5" y="1" width="40" height="32" rx="9.5" stroke="#22467A" stroke-opacity="0.7"/>
<path fill-rule="evenodd" clip-rule="evenodd" d="M18.8333 5.83337C17.2862 5.83337 15.8025 6.44796 14.7085 7.54192C13.6146 8.63588 13 10.1196 13 11.6667C13 13.2138 13.6146 14.6975 14.7085 15.7915C15.8025 16.8855 17.2862 17.5 18.8333 17.5C20.3804 17.5 21.8641 16.8855 22.9581 15.7915C24.0521 14.6975 24.6666 13.2138 24.6666 11.6667C24.6666 10.1196 24.0521 8.63588 22.9581 7.54192C21.8641 6.44796 20.3804 5.83337 18.8333 5.83337ZM18.8333 18.6667C16.0391 18.6667 13.4958 19.4764 11.6256 20.6174C10.6923 21.1867 9.89431 21.8587 9.31798 22.589C8.75098 23.3054 8.33331 24.1652 8.33331 25.0834C8.33331 26.0692 8.81281 26.8462 9.50348 27.4004C10.1568 27.9254 11.019 28.273 11.9348 28.5157C13.7758 29.0022 16.2328 29.1667 18.8333 29.1667C19.1024 29.1667 19.3688 29.1648 19.6325 29.1609C19.8279 29.1582 20.0195 29.1065 20.1897 29.0105C20.3599 28.9145 20.5032 28.7772 20.6066 28.6114C20.7099 28.4456 20.77 28.2564 20.7812 28.0613C20.7924 27.8663 20.7545 27.6715 20.6708 27.4949C20.2284 26.5585 19.9993 25.5357 20 24.5C20 23.0394 20.4468 21.686 21.2098 20.5649C21.3232 20.3983 21.3915 20.2051 21.4081 20.0042C21.4247 19.8034 21.3889 19.6016 21.3043 19.4187C21.2197 19.2358 21.0892 19.0779 20.9254 18.9604C20.7616 18.8429 20.5702 18.7699 20.3698 18.7484C19.8674 18.6939 19.3552 18.6667 18.8333 18.6667ZM25.3503 21.2007C25.1303 20.9882 24.8356 20.8706 24.5297 20.8733C24.2238 20.8759 23.9312 20.9986 23.7149 21.2149C23.4985 21.4312 23.3759 21.7238 23.3732 22.0297C23.3705 22.3356 23.4881 22.6303 23.7006 22.8504L25.3503 24.5L23.7006 26.1497C23.5892 26.2573 23.5003 26.3861 23.4392 26.5284C23.3781 26.6707 23.3459 26.8238 23.3445 26.9787C23.3432 27.1336 23.3727 27.2873 23.4314 27.4307C23.49 27.574 23.5766 27.7043 23.6862 27.8138C23.7957 27.9234 23.926 28.01 24.0694 28.0687C24.2127 28.1273 24.3664 28.1568 24.5213 28.1555C24.6762 28.1542 24.8293 28.122 24.9716 28.0608C25.114 27.9997 25.2427 27.9108 25.3503 27.7994L27 26.1497L28.6496 27.7994C28.7573 27.9108 28.886 27.9997 29.0283 28.0608C29.1707 28.122 29.3238 28.1542 29.4787 28.1555C29.6336 28.1568 29.7872 28.1273 29.9306 28.0687C30.074 28.01 30.2042 27.9234 30.3138 27.8138C30.4233 27.7043 30.5099 27.574 30.5686 27.4307C30.6273 27.2873 30.6568 27.1336 30.6554 26.9787C30.6541 26.8238 30.6219 26.6707 30.5608 26.5284C30.4996 26.3861 30.4107 26.2573 30.2993 26.1497L28.6496 24.5L30.2993 22.8504C30.5118 22.6303 30.6294 22.3356 30.6268 22.0297C30.6241 21.7238 30.5014 21.4312 30.2851 21.2149C30.0688 20.9986 29.7762 20.8759 29.4703 20.8733C29.1644 20.8706 28.8697 20.9882 28.6496 21.2007L27 22.8504L25.3503 21.2007Z" fill="#3E81E0" fill-opacity="0.8"/>
</svg>
